<svg xmlns="http://www.w3.org/2000/svg" width="817.4" height="108.2" viewBox="0 0 817.4 108.2"><path fill="#3C2415" d="M233.6 77.4c.2 2.9-.1 5.8-.9 8.7-.9 2.8-2.4 5.6-4.7 7.6-2.3 2.1-5.4 3.3-8.4 3.7-3 .4-6.1.2-9-.3-1.5-.3-2.9-.6-4.4-1-.6-.2-1.5-.5-2.2-.7l-2.1-.9c-2.8-1.4-5.4-3.4-7.4-5.9-2-2.5-3.5-5.4-4.4-8.4-.9-3-1.3-6.1-1.2-9.2.1-6.2 1.9-12.3 4.8-17.7 2.9-5.4 7.1-10.2 12.3-13.7 2.6-1.8 5.4-3.2 8.3-4.2 1.5-.5 3-.9 4.5-1.3l1.1-.2.6-.1.5-.1c.7-.1 1.4-.2 2.2-.3 5.9-.9 11.8-1.1 17.6-.8 5.9.3 11.7 1.1 17.4 2.4 2.9.7 5.7 1.4 8.5 2.3 2.8.9 5.5 1.9 8.2 3 5.4 2.1 10.6 4.7 15.7 7.5 5 2.8 9.9 5.9 14.6 9.2 2.4 1.6 4.7 3.2 7.1 4.7 2.4 1.5 4.7 3 7.2 4.5 4.8 2.9 9.8 5.7 14.8 8.3 5 2.6 10.1 5.1 15.2 7.4 5.2 2.3 10.4 4.5 15.7 6.4h.2c.7.4 1.6.7 2.4 1 .8.3 1.6.6 2.5.9 1.7.6 3.3 1.1 5 1.5 3.4.8 6.9 1.4 10.3 1.3 3.4-.1 6.8-.7 9.8-2.1 3-1.4 5.5-3.6 7.3-6.3l3.6.4s.1.2.2.3l.3.4c.2.3.4.5.7.8.5.5 1 1 1.6 1.4 1.1.9 2.5 1.6 3.9 2.2 1.4.6 2.9 1 4.4 1.3 1.5.3 3.1.5 4.7.5 6.4.3 12.8-.9 19.2-2.5 3.2-.8 6.3-1.8 9.5-2.9l1.2-.4 1.1-.4 2.3-.9 4.6-1.9c6.1-2.7 12.2-5.5 18.1-8.6 6-3 11.8-6.2 17.6-9.6 5.8-3.4 11.4-6.9 17.1-10.6 2.8-1.8 5.8-3.7 8.8-5.4 3-1.7 6.1-3.3 9.2-4.8 6.3-3 12.8-5.6 19.5-7.6 6.7-2 13.6-3.4 20.6-4 7-.6 14.1-.6 21.1.3 1.7.2 3.5.5 5.2.8l.4.1.3.1.6.1c.4.1.9.2 1.4.3 1 .2 1.8.5 2.7.8 3.6 1.2 6.9 2.9 10 5.1 6.1 4.4 10.6 10.5 13.4 17.3 2.7 6.8 3.7 14.4 1.9 21.7-.9 3.6-2.6 7.1-5 10-2.5 2.9-5.7 5.1-9.1 6.4l-2.6.9c-.9.3-1.6.4-2.6.6-1.7.4-3.5.6-5.3.7-3.5.2-7.3-.2-10.7-1.9-3.4-1.7-5.8-4.7-7.1-8-1.3-3.3-1.7-6.8-1.5-10.3h.8c.1 3.3.9 6.6 2.4 9.5 1.4 2.9 3.8 5.2 6.6 6.3 2.8 1.2 6 1.3 9.2.8 1.6-.2 3.2-.6 4.7-1l2.3-.7c.7-.3 1.5-.5 2.1-.9 2.8-1.3 5.2-3.2 7-5.6 1.8-2.4 3-5.2 3.5-8.2 1.1-6 0-12.3-2.6-18-2.6-5.6-6.6-10.5-11.6-13.9-2.5-1.7-5.2-3-8.1-3.9-.7-.2-1.5-.4-2.1-.6-.3-.1-.7-.2-1.1-.2l-.6-.1-.3-.1h-.2l-4.8-.6c-12.9-1.2-26 .4-38.4 4.2-6.2 1.8-12.3 4.2-18.3 7-3 1.4-5.9 2.9-8.7 4.5-2.9 1.6-5.6 3.2-8.5 5-5.7 3.6-11.6 7.2-17.6 10.4-6 3.3-12 6.4-18.2 9.4-6.2 3-12.4 5.7-18.7 8.3l-4.8 1.9-2.4.9-1.3.5-1.2.4c-3.3 1-6.7 1.8-10.1 2.6-6.8 1.4-13.8 2.2-21 1.6-1.8-.2-3.6-.5-5.3-.9-1.8-.4-3.5-1-5.2-1.8-1.7-.8-3.3-1.8-4.8-3-.7-.6-1.4-1.3-2-2.1l-.9-1.2c-.1-.2-.3-.4-.4-.7-.1-.1-.1-.2-.2-.4-.1-.1-.1-.2-.2-.5l3.6.4c-1.2 1.6-2.6 3-4.1 4.2-1.5 1.2-3.3 2.2-5.1 3-3.6 1.5-7.5 2.1-11.2 2-3.8-.1-7.5-.7-11-1.7-1.8-.5-3.5-1.1-5.3-1.7l-2.6-1c-.9-.4-1.7-.7-2.5-1.2l.2.1c-5.4-2-10.6-4.2-15.8-6.6-5.2-2.3-10.4-4.7-15.4-7.3-5.1-2.5-10.2-5.1-15.1-7.9-5-2.7-10-5.6-14.8-8.5l-3.7-2.2c-1.2-.7-2.4-1.4-3.7-2.1-2.5-1.3-4.9-2.6-7.5-3.8-5-2.4-10.2-4.5-15.4-6.3-5.2-1.8-10.6-3.2-16-4.3-2.7-.5-5.4-.9-8.1-1.3-2.7-.3-5.4-.6-8.2-.7-5.4-.2-10.9 0-16.3.7-.6.1-1.3.2-2.1.3l-.5.1-.5.1-.9.2c-1.2.3-2.5.6-3.7 1-2.4.8-4.7 1.9-6.8 3.3-4.2 2.8-7.9 6.6-10.5 11.1-2.6 4.5-4.2 9.6-4.6 14.7-.3 5.1.8 10.3 3.7 14.4 1.5 2 3.3 3.7 5.5 5l1.7.9.9.4.4.2.5.2c1.2.4 2.6.8 3.9 1.2 2.6.6 5.3 1 7.9.9 2.6-.1 5.1-.9 7.2-2.4 2.1-1.5 3.7-3.7 4.7-6.2s1.7-5.3 1.8-8zM150.9 77.4s.2 1.1.2 3.2c0 1-.1 2.3-.3 3.8-.2 1.5-.7 3.2-1.6 5.1-.9 1.9-2.2 3.9-4.3 5.5-2 1.7-4.7 2.9-7.6 3.4-2.9.5-6 .5-9.1 0-3.1-.5-6.4-1.2-9.7-2.9-3.3-1.7-6.4-4.3-8.7-7.6-2.3-3.3-3.7-7.3-4.2-11.4-.9-8.3 1.7-16.7 6.5-23.7s11.9-12.5 20.1-15.3c2-.7 4.2-1.2 6.3-1.6 2.1-.4 4.2-.7 6.4-1 4.3-.5 8.6-.8 12.9-.9 8.7-.1 17.5.8 25.8 2.9 8.4 2.2 16.3 5.2 23.7 8.8 1.8.9 3.7 1.8 5.4 2.8 1.8 1 3.5 2 5.2 3 3.4 2.1 6.5 4.1 9.5 6.1 3.1 1.9 5.9 3.8 8.9 5.6 2.9 1.8 5.7 3.5 8.4 5.1 5.4 3.3 10.5 6.1 14.9 8.7 2.3 1.3 4.4 2.4 6.3 3.5 2 1.1 3.8 2.1 5.4 2.9 3.3 1.7 5.9 3.1 7.6 4.1 1.8.9 2.7 1.4 2.7 1.4l-.3.8s-1-.3-3-.7c-1.9-.5-4.8-1.3-8.4-2.5-1.8-.6-3.8-1.3-5.9-2-2.1-.7-4.4-1.6-6.8-2.6-4.9-1.9-10.3-4.4-16.1-7.1-2.9-1.4-5.9-3-8.9-4.6-1.5-.8-3.1-1.7-4.7-2.6-1.6-.9-3.2-1.8-4.7-2.8-3.1-1.9-6.3-3.9-9.5-5.9-1.6-1-3.2-1.9-4.9-2.9-1.6-1-3.3-1.9-5-2.8-3.4-1.8-7-3.6-10.6-5.2-3.6-1.6-7.4-3-11.3-4.3-3.9-1.3-7.8-2.4-11.8-3.4-4-1-8.1-1.7-12.3-2.2-2.1-.2-4.2-.4-6.2-.4h-3.1l-3.1.1c-2.1.1-4.1.3-6.2.6-2 .3-4 .7-5.9 1.4-3.8 1.3-7.3 3.5-10.2 6.1-2.9 2.7-5.2 5.9-6.8 9.2-3.3 6.7-4.4 14.1-3.4 20.4.5 3.1 1.5 6 3 8.4 1.6 2.4 3.6 4.3 5.9 5.6l.9.5.9.4.9.4c.3.1.7.3 1.1.4l.3.1h.2l.5.2 1 .3c.7.2 1.3.4 2 .5 2.6.6 5.1.9 7.3.8 2.2-.1 4.2-.7 5.8-1.6 1.6-1 2.9-2.3 3.9-3.6 1.9-2.8 2.7-5.6 3.2-7.5.2-.9.4-1.7.4-2.2.1-.5.1-.8.1-.8h1zM64.9 64.9c.4 1 .4 2.2-.1 3.3-.5 1.1-1.3 1.9-2.2 2.5-.9.6-1.9 1-2.9 1.3-1 .3-2 .5-3.1.6-1 .1-2 .2-3.1.3h-3c-2-.1-4-.2-6-.4-1-.1-2-.2-3-.4-1-.1-2-.3-3-.5l-3-.5c-1-.2-2-.4-2.9-.6-2-.4-3.9-.8-5.8-1.3l-5.8-1.5-18.4-4.7 19.2-.7 27.7-.7c9.2-.1 18.5-.2 27.7-.2 4.6 0 9.2 0 13.9.1 4.6.1 9.2.2 13.9.4 9.2.3 18.5.7 27.7 1.1 9.2.4 18.5.6 27.7.7 9.2.1 18.5 0 27.7-.1s18.5-.4 27.7-.7l27.7-1c9.2-.3 18.5-.5 27.7-.6l27.8-.3 27.7-.3h13.9l13.9.1 13.9.2 13.9.3 27.7.7c9.2.3 18.5.6 27.7 1.1 9.2.4 18.5.9 27.7 1.5v.8c-9.2.6-18.5 1.1-27.7 1.5l-27.7 1.1c-9.2.2-18.5.6-27.7.7l-14 .3-13.9.2-13.9.1h-13.9c-9.2 0-18.5-.2-27.7-.3l-27.7-.4c-9.2-.1-18.5-.3-27.7-.6l-27.7-1c-9.2-.3-18.5-.6-27.7-.7-9.2-.1-18.5-.2-27.7-.1s-18.5.4-27.7.7c-9.2.4-18.5.8-27.7 1.1-4.6.2-9.2.3-13.9.4-4.6.1-9.2.1-13.9.1-9.2 0-18.5-.1-27.7-.2-9.2-.2-18.5-.3-27.7-.7l.8-5.4 5.6 1.8c1.9.6 3.7 1.2 5.6 1.7l2.8.8c.9.3 1.9.5 2.8.7 1.9.5 3.8.9 5.7 1.3 1.9.4 3.8.7 5.7 1 .9.1 1.9.2 2.9.3 1 .1 1.9.1 2.8.1.9 0 1.9-.1 2.8-.2.9-.1 1.8-.4 2.6-.7.8-.4 1.5-.9 1.9-1.6.4-.7.6-1.6.4-2.5h.7zM666.8 77.5s0 .3.1.8.2 1.2.4 2.2c.5 1.9 1.3 4.7 3.2 7.5 1 1.4 2.3 2.7 3.9 3.6 1.6.9 3.6 1.5 5.8 1.6 2.2.1 4.7-.2 7.3-.8.6-.2 1.3-.3 2-.5l1-.3.5-.2h.2l.3-.1 1.1-.4.9-.4.9-.4.9-.5c2.3-1.3 4.4-3.2 5.9-5.6 1.5-2.4 2.6-5.3 3-8.4 1-6.3-.1-13.6-3.4-20.4-1.7-3.4-4-6.5-6.8-9.2-2.9-2.7-6.3-4.8-10.2-6.1-1.9-.7-3.9-1.1-5.9-1.4-2.1-.3-4.1-.5-6.2-.6-1-.1-2.1-.1-3.1-.1h-3.1c-2.1 0-4.2.2-6.2.4-4.1.5-8.2 1.2-12.3 2.2-4 1-8 2.1-11.8 3.4-3.9 1.3-7.6 2.7-11.3 4.3-3.6 1.6-7.2 3.3-10.6 5.2-1.7.9-3.4 1.9-5 2.8l-4.9 2.9c-3.2 2-6.4 4-9.5 5.9-1.5 1-3.2 1.9-4.7 2.8-1.6.9-3.1 1.8-4.7 2.6-3.1 1.6-6.1 3.2-8.9 4.6-5.8 2.8-11.2 5.2-16.1 7.1-2.4 1-4.7 1.9-6.8 2.6-2.1.8-4.1 1.5-5.9 2-3.6 1.2-6.4 2-8.4 2.5s-3 .7-3 .7l-.3-.8s.9-.5 2.7-1.4c1.8-.9 4.3-2.3 7.6-4.1 1.6-.9 3.4-1.9 5.4-2.9 2-1.1 4.1-2.3 6.3-3.5 4.5-2.6 9.5-5.4 14.9-8.7 2.7-1.6 5.5-3.3 8.4-5.1 2.9-1.8 5.8-3.7 8.9-5.6 3.1-2 6.1-4 9.5-6.1 1.7-1 3.4-2 5.2-3l5.4-2.8c7.4-3.6 15.3-6.6 23.7-8.8 8.4-2.2 17.2-3.1 25.8-2.9 4.4.1 8.7.4 12.9.9 2.1.3 4.3.6 6.4 1 2.1.4 4.3.9 6.3 1.6 8.2 2.8 15.3 8.4 20.1 15.3 4.8 6.9 7.5 15.4 6.5 23.7-.5 4.1-1.9 8.1-4.2 11.4-2.3 3.4-5.4 6-8.7 7.6-3.3 1.7-6.6 2.4-9.7 2.9-3.1.5-6.2.5-9.1 0-2.9-.5-5.6-1.7-7.6-3.4-2.1-1.6-3.4-3.6-4.3-5.5-.9-1.9-1.3-3.6-1.6-5.1-.2-1.5-.3-2.8-.3-3.8 0-2.1.2-3.2.2-3.2h1zM752.7 65.2c-.2.8 0 1.8.4 2.5s1.1 1.2 1.9 1.6c.8.3 1.7.6 2.6.7.9.1 1.8.2 2.8.2.9 0 1.9 0 2.8-.1.9-.1 1.9-.2 2.9-.3 1.9-.3 3.8-.6 5.7-1 1.9-.4 3.8-.8 5.7-1.3l2.8-.7 2.8-.8 5.6-1.7 5.6-1.8.8 5.4-27.7.7c-9.2.1-18.5.2-27.7.2-4.6 0-9.2 0-13.9-.1-4.6-.1-9.2-.2-13.9-.4-9.2-.3-18.5-.7-27.7-1.1-9.2-.4-18.5-.6-27.7-.7-9.2-.1-18.5 0-27.7.1s-18.5.4-27.7.7l-27.7 1c-9.2.3-18.5.5-27.7.6l-27.7.4-27.7.3h-13.9l-13.9-.1-13.9-.5-13.9-.3-27.7-.7c-9.2-.3-18.5-.6-27.7-1.1-9.2-.4-18.5-.9-27.7-1.5v-.8c9.2-.6 18.5-1.1 27.7-1.5l27.7-1.1c9.2-.2 18.5-.6 27.7-.7l13.9-.3 13.9-.2 13.9-.1h13.9c9.2 0 18.5.2 27.7.3l27.7.4c9.2.1 18.5.3 27.7.6l27.7 1c9.2.3 18.5.6 27.7.7 9.2.1 18.5.2 27.7.1s18.5-.4 27.7-.7c9.2-.4 18.5-.8 27.7-1.1 4.6-.2 9.2-.3 13.9-.4 4.6-.1 9.2-.1 13.9-.1 9.2 0 18.5.1 27.7.2 9.2.2 18.5.3 27.7.7l19.2.7-18.4 4.7c-1.9.5-3.8 1-5.8 1.5-1.9.5-3.9.9-5.8 1.3-1 .2-2 .4-2.9.6-1 .2-2 .4-3 .5l-3 .5-3 .4c-2 .2-4 .4-6 .4h-3c-1 0-2-.1-3.1-.3-1-.1-2-.3-3.1-.6-1-.3-2-.7-2.9-1.3-.9-.6-1.8-1.4-2.2-2.5-.4-1.1-.5-2.2-.1-3.3l.7.2z"/><path fill="#C2B59B" d="M403 22.2c-14.4-12.2-29.5-3.8-29.5-3.8-21.2 15.5.7 34.1 6.9 38.1 19.3 12.4 23.6 29.2 23.6 29.2-2.7-12.8 23.3-21.4 35.1-33.8s9.1-27.5 0-35.1c-7.2-6-27.8-5.1-35.1 6.2-.3.5-.6 1-.9 1.6-1.4 2.9-2.2 5.5-2.6 7.9 0 0-1.6 9.2 6.7 20.5"/><path fill="#3C2415" d="M402.8 22.5l-1.7-1-1.7-.9c-.6-.3-1.2-.6-1.7-.8l-1.8-.7c-.6-.2-1.2-.4-1.8-.5-.6-.2-1.2-.3-1.8-.4l-1.8-.3c-.6-.1-1.2-.1-1.8-.1-2.4-.1-4.8.2-7.2.7-1.2.3-2.3.6-3.4 1.1-.6.2-1.1.4-1.6.7l-.8.4c-.2.1-.5.3-.6.4l.3-.2c-1.3 1-2.4 2.1-3.5 3.3-1 1.2-1.9 2.4-2.5 3.7-1.3 2.5-1.6 5.2-1 8 .6 2.8 2.1 5.6 3.9 8.2.9 1.3 1.9 2.6 3 3.9 1.1 1.3 2.2 2.5 3.5 3.6.6.6 1.2 1.1 1.9 1.7l.9.8 1.1.8 1.1.8 1.1.9 2.1 1.8c1.4 1.3 2.7 2.6 3.9 3.9 1.3 1.3 2.5 2.7 3.6 4.2 2.3 2.9 4.4 5.8 6.2 9 .9 1.6 1.8 3.2 2.6 4.8.8 1.7 1.5 3.3 2.1 5.2l-2.5.6c-.5-1.9-.4-3.9.3-5.7.6-1.8 1.6-3.4 2.7-4.9 2.2-2.9 4.9-5.2 7.5-7.4 2.7-2.2 5.4-4.2 8.1-6.2 2.7-2 5.4-4 8-6 2.6-2 5-4.1 7.1-6.3l.8-.9c.3-.3.5-.6.7-.9.4-.5.9-1.2 1.3-1.8.8-1.2 1.5-2.5 2.1-3.8 1.1-2.6 1.7-5.4 1.7-8.1 0-2.7-.7-5.4-1.8-7.9-.6-1.2-1.3-2.4-2.1-3.5l-1.3-1.5-.7-.7-.4-.3c-.1-.1.2.1.1.1h-.1l-.1-.1-.2-.2-.2-.2-.1-.1c-.1 0-.2-.1-.2-.2l-.8-.4c-.5-.3-1.1-.5-1.8-.7-1.3-.4-2.7-.7-4.1-.9-2.9-.4-5.9-.4-8.9.1-2.9.5-5.8 1.3-8.4 2.7-2.5 1.4-4.7 3.3-6.1 5.7-.8 1.4-1.4 2.7-2 4.2-.3.7-.5 1.4-.7 2.2l-.1.6-.1.5c-.1.3-.1.7-.1 1.1-.2 3 .2 6.3 1.2 9.4.9 3.1 2.3 6.1 4 9 .1.2.1.4-.1.6-.2.1-.4.1-.5-.1-2.3-2.5-4.2-5.4-5.7-8.6-.8-1.6-1.4-3.2-1.8-5-.5-1.7-.8-3.5-.9-5.3v-2.2l.1-.7c.1-.9.2-1.8.4-2.7.4-1.8 1-3.6 1.7-5.2.8-1.8 1.8-3.5 3.1-5s2.8-2.8 4.3-3.9c3.2-2.2 6.7-3.6 10.3-4.5 3.6-.9 7.4-1.2 11.2-.9 1.9.2 3.8.5 5.8 1 1 .3 1.9.6 2.9 1.1l1.5.7.8.5.4.3.3.2.3.2.1.1h.1l.2.2.6.5 1.1 1c.7.7 1.4 1.5 2 2.2 1.2 1.6 2.3 3.3 3.2 5.1 1.7 3.6 2.6 7.7 2.4 11.7-.1 4-1.1 7.9-2.8 11.4-.9 1.7-1.9 3.4-3 4.9-.6.8-1.1 1.5-1.8 2.2-.3.4-.7.8-.9 1l-1 1c-2.7 2.6-5.5 4.7-8.4 6.6-2.9 1.9-5.9 3.6-8.8 5.3-2.9 1.7-5.8 3.3-8.6 5-2.8 1.8-5.5 3.6-7.6 5.9-2.2 2.2-3.5 5.1-3 7.9.1.7-.3 1.4-1 1.5-.7.1-1.3-.3-1.5-.9-.4-1.6-1.1-3.2-1.8-4.8-.7-1.6-1.5-3.1-2.5-4.6-1.8-3-4-5.7-6.4-8.2-1.2-1.2-2.5-2.4-3.9-3.5-1.3-1.1-2.7-2.1-4.2-3.1-.7-.5-1.4-1-2.2-1.4l-1.1-.7-1.2-.7-1.2-.7c-.4-.2-.8-.5-1.2-.8l-2.4-1.6c-3-2.3-5.9-4.8-8.3-7.9-1.2-1.5-2.3-3.2-3.2-5-.9-1.8-1.7-3.8-2.1-5.9-.4-2.1-.5-4.4-.2-6.5.4-2.2 1.1-4.3 2.2-6.2 1.1-1.9 2.4-3.5 3.8-4.9 1.4-1.4 3-2.6 4.6-3.7l.2-.1.1-.1 1.1-.5c.4-.1.7-.3 1-.4.7-.2 1.4-.5 2.1-.6 1.4-.4 2.8-.6 4.2-.8l2.1-.2h2.2c.7 0 1.4.1 2.1.2l2.1.3c2.8.5 5.5 1.6 7.9 3 .6.4 1.2.7 1.7 1.1.6.4 1.1.8 1.6 1.2.5.4 1 .9 1.5 1.4l1.4 1.4c.2.2.1.4 0 .6-.5.2-.7.2-.8.1zM414 39.6l-.8.8c-.3.2-.6.5-1 .8-.4.3-.9.6-1.4.9-.3.1-.6.3-.9.5-.3.1-.6.3-1 .4-.7.3-1.4.5-2.1.7-.8.2-1.6.4-2.4.5-.8.1-1.7.2-2.5.2h-1.3c-.4 0-.8-.1-1.3-.1-.8-.1-1.6-.3-2.4-.5-.8-.2-1.5-.5-2.2-.7l-1-.4-.9-.5c-.5-.3-1-.6-1.4-.9-.4-.3-.7-.6-1-.9l-.8-.8s.4.1 1.1.3c.3.1.8.2 1.2.4.5.1 1 .2 1.6.4l1.8.4c.6.1 1.3.3 2 .3.7.1 1.4.2 2.2.2.4 0 .7 0 1.1.1h1.1l2.2-.1 2.2-.2c.7-.1 1.4-.2 2-.3.7-.1 1.3-.2 1.9-.3 1.1-.2 2.1-.5 2.8-.6.8-.5 1.2-.6 1.2-.6z"/></svg>