<?xml version="1.0" encoding="utf-8"?>
<!-- Generator: Adobe Illustrator 19.1.0, SVG Export Plug-In . SVG Version: 6.00 Build 0)  -->
<svg version="1.1" id="Layer_1" xmlns="http://www.w3.org/2000/svg" xmlns:xlink="http://www.w3.org/1999/xlink" x="0px" y="0px"
	 width="817.4px" height="108.2px" viewBox="0 0 817.4 108.2" enable-background="new 0 0 817.4 108.2" xml:space="preserve">
<g>
	<g>
		<path fill="#3C2415" d="M233.6,77.4c0.2,2.9-0.1,5.8-0.9,8.7c-0.9,2.8-2.4,5.6-4.7,7.6c-2.3,2.1-5.4,3.3-8.4,3.7
			c-3,0.4-6.1,0.2-9-0.3c-1.5-0.3-2.9-0.6-4.4-1c-0.6-0.2-1.5-0.5-2.2-0.7c-0.7-0.3-1.4-0.6-2.1-0.9c-2.8-1.4-5.4-3.4-7.4-5.9
			c-2-2.5-3.5-5.4-4.4-8.4c-0.9-3-1.3-6.1-1.2-9.2c0.1-6.2,1.9-12.3,4.8-17.7c2.9-5.4,7.1-10.2,12.3-13.7c2.6-1.8,5.4-3.2,8.3-4.2
			c1.5-0.5,3-0.9,4.5-1.3l1.1-0.2l0.6-0.1l0.5-0.1c0.7-0.1,1.4-0.2,2.2-0.3c5.9-0.9,11.8-1.1,17.6-0.8c5.9,0.3,11.7,1.1,17.4,2.4
			c2.9,0.7,5.7,1.4,8.5,2.3c2.8,0.9,5.5,1.9,8.2,3c5.4,2.1,10.6,4.7,15.7,7.5c5,2.8,9.9,5.9,14.6,9.2c2.4,1.6,4.7,3.2,7.1,4.7
			c2.4,1.5,4.7,3,7.2,4.5c4.8,2.9,9.8,5.7,14.8,8.3c5,2.6,10.1,5.1,15.2,7.4c5.2,2.3,10.4,4.5,15.7,6.4l0.1,0l0.1,0
			c0.7,0.4,1.6,0.7,2.4,1c0.8,0.3,1.6,0.6,2.5,0.9c1.7,0.6,3.3,1.1,5,1.5c3.4,0.8,6.9,1.4,10.3,1.3c3.4-0.1,6.8-0.7,9.8-2.1
			c3-1.4,5.5-3.6,7.3-6.3l3.6,0.4c0,0,0.1,0.2,0.2,0.3c0.1,0.1,0.2,0.3,0.3,0.4c0.2,0.3,0.4,0.5,0.7,0.8c0.5,0.5,1,1,1.6,1.4
			c1.1,0.9,2.5,1.6,3.9,2.2c1.4,0.6,2.9,1,4.4,1.3c1.5,0.3,3.1,0.5,4.7,0.5c6.4,0.3,12.8-0.9,19.2-2.5c3.2-0.8,6.3-1.8,9.5-2.9
			l1.2-0.4l1.1-0.4l2.3-0.9c1.5-0.6,3.1-1.3,4.6-1.9c6.1-2.7,12.2-5.5,18.1-8.6c6-3,11.8-6.2,17.6-9.6c5.8-3.4,11.4-6.9,17.1-10.6
			c2.8-1.8,5.8-3.7,8.8-5.4c3-1.7,6.1-3.3,9.2-4.8c6.3-3,12.8-5.6,19.5-7.6c6.7-2,13.6-3.4,20.6-4c7-0.6,14.1-0.6,21.1,0.3
			c1.7,0.2,3.5,0.5,5.2,0.8l0.4,0.1l0.3,0.1l0.6,0.1c0.4,0.1,0.9,0.2,1.4,0.3c1,0.2,1.8,0.5,2.7,0.8c3.6,1.2,6.9,2.9,10,5.1
			c6.1,4.4,10.6,10.5,13.4,17.3c2.7,6.8,3.7,14.4,1.9,21.7c-0.9,3.6-2.6,7.1-5,10c-2.5,2.9-5.7,5.1-9.1,6.4
			c-0.9,0.3-1.7,0.6-2.6,0.9c-0.9,0.3-1.6,0.4-2.6,0.6c-1.7,0.4-3.5,0.6-5.3,0.7c-3.5,0.2-7.3-0.2-10.7-1.9c-3.4-1.7-5.8-4.7-7.1-8
			c-1.3-3.3-1.7-6.8-1.5-10.3l0.8,0c0.1,3.3,0.9,6.6,2.4,9.5c1.4,2.9,3.8,5.2,6.6,6.3c2.8,1.2,6,1.3,9.2,0.8c1.6-0.2,3.2-0.6,4.7-1
			c0.7-0.2,1.6-0.5,2.3-0.7c0.7-0.3,1.5-0.5,2.1-0.9c2.8-1.3,5.2-3.2,7-5.6c1.8-2.4,3-5.2,3.5-8.2c1.1-6,0-12.3-2.6-18
			c-2.6-5.6-6.6-10.5-11.6-13.9c-2.5-1.7-5.2-3-8.1-3.9c-0.7-0.2-1.5-0.4-2.1-0.6c-0.3-0.1-0.7-0.2-1.1-0.2l-0.6-0.1l-0.3-0.1
			c-0.1,0,0,0,0,0l-0.1,0l-0.1,0c-1.6-0.2-3.2-0.4-4.8-0.6c-12.9-1.2-26,0.4-38.4,4.2c-6.2,1.8-12.3,4.2-18.3,7
			c-3,1.4-5.9,2.9-8.7,4.5c-2.9,1.6-5.6,3.2-8.5,5c-5.7,3.6-11.6,7.2-17.6,10.4c-6,3.3-12,6.4-18.2,9.4c-6.2,3-12.4,5.7-18.7,8.3
			c-1.6,0.6-3.2,1.3-4.8,1.9l-2.4,0.9l-1.3,0.5l-1.2,0.4c-3.3,1-6.7,1.8-10.1,2.6c-6.8,1.4-13.8,2.2-21,1.6
			c-1.8-0.2-3.6-0.5-5.3-0.9c-1.8-0.4-3.5-1-5.2-1.8c-1.7-0.8-3.3-1.8-4.8-3c-0.7-0.6-1.4-1.3-2-2.1c-0.3-0.4-0.6-0.8-0.9-1.2
			c-0.1-0.2-0.3-0.4-0.4-0.7c-0.1-0.1-0.1-0.2-0.2-0.4c-0.1-0.1-0.1-0.2-0.2-0.5l3.6,0.4c-1.2,1.6-2.6,3-4.1,4.2
			c-1.5,1.2-3.3,2.2-5.1,3c-3.6,1.5-7.5,2.1-11.2,2c-3.8-0.1-7.5-0.7-11-1.7c-1.8-0.5-3.5-1.1-5.3-1.7c-0.9-0.3-1.7-0.7-2.6-1
			c-0.9-0.4-1.7-0.7-2.5-1.2l0.2,0.1c-5.4-2-10.6-4.2-15.8-6.6c-5.2-2.3-10.4-4.7-15.4-7.3c-5.1-2.5-10.2-5.1-15.1-7.9
			c-5-2.7-10-5.6-14.8-8.5l-3.7-2.2c-1.2-0.7-2.4-1.4-3.7-2.1c-2.5-1.3-4.9-2.6-7.5-3.8c-5-2.4-10.2-4.5-15.4-6.3
			c-5.2-1.8-10.6-3.2-16-4.3c-2.7-0.5-5.4-0.9-8.1-1.3c-2.7-0.3-5.4-0.6-8.2-0.7c-5.4-0.2-10.9,0-16.3,0.7c-0.6,0.1-1.3,0.2-2.1,0.3
			l-0.5,0.1l-0.5,0.1l-0.9,0.2c-1.2,0.3-2.5,0.6-3.7,1c-2.4,0.8-4.7,1.9-6.8,3.3c-4.2,2.8-7.9,6.6-10.5,11.1
			c-2.6,4.5-4.2,9.6-4.6,14.7c-0.3,5.1,0.8,10.3,3.7,14.4c1.5,2,3.3,3.7,5.5,5c0.6,0.3,1.1,0.6,1.7,0.9c0.3,0.2,0.6,0.2,0.9,0.4
			l0.4,0.2l0.5,0.2c1.2,0.4,2.6,0.8,3.9,1.2c2.6,0.6,5.3,1,7.9,0.9c2.6-0.1,5.1-0.9,7.2-2.4c2.1-1.5,3.7-3.7,4.7-6.2
			c1-2.5,1.7-5.3,1.8-8L233.6,77.4z"/>
	</g>
	<g>
		<path fill="#3C2415" d="M150.9,77.4c0,0,0.2,1.1,0.2,3.2c0,1-0.1,2.3-0.3,3.8c-0.2,1.5-0.7,3.2-1.6,5.1c-0.9,1.9-2.2,3.9-4.3,5.5
			c-2,1.7-4.7,2.9-7.6,3.4c-2.9,0.5-6,0.5-9.1,0c-3.1-0.5-6.4-1.2-9.7-2.9c-3.3-1.7-6.4-4.3-8.7-7.6c-2.3-3.3-3.7-7.3-4.2-11.4
			c-0.9-8.3,1.7-16.7,6.5-23.7c4.8-7,11.9-12.5,20.1-15.3c2-0.7,4.2-1.2,6.3-1.6c2.1-0.4,4.2-0.7,6.4-1c4.3-0.5,8.6-0.8,12.9-0.9
			c8.7-0.1,17.5,0.8,25.8,2.9c8.4,2.2,16.3,5.2,23.7,8.8c1.8,0.9,3.7,1.8,5.4,2.8c1.8,1,3.5,2,5.2,3c3.4,2.1,6.5,4.1,9.5,6.1
			c3.1,1.9,5.9,3.8,8.9,5.6c2.9,1.8,5.7,3.5,8.4,5.1c5.4,3.3,10.5,6.1,14.9,8.7c2.3,1.3,4.4,2.4,6.3,3.5c2,1.1,3.8,2.1,5.4,2.9
			c3.3,1.7,5.9,3.1,7.6,4.1c1.8,0.9,2.7,1.4,2.7,1.4l-0.3,0.8c0,0-1-0.3-3-0.7c-1.9-0.5-4.8-1.3-8.4-2.5c-1.8-0.6-3.8-1.3-5.9-2
			c-2.1-0.7-4.4-1.6-6.8-2.6c-4.9-1.9-10.3-4.4-16.1-7.1c-2.9-1.4-5.9-3-8.9-4.6c-1.5-0.8-3.1-1.7-4.7-2.6c-1.6-0.9-3.2-1.8-4.7-2.8
			c-3.1-1.9-6.3-3.9-9.5-5.9c-1.6-1-3.2-1.9-4.9-2.9c-1.6-1-3.3-1.9-5-2.8c-3.4-1.8-7-3.6-10.6-5.2c-3.6-1.6-7.4-3-11.3-4.3
			c-3.9-1.3-7.8-2.4-11.8-3.4c-4-1-8.1-1.7-12.3-2.2c-2.1-0.2-4.2-0.4-6.2-0.4c-1,0-2.1,0-3.1,0c-1,0-2.1,0.1-3.1,0.1
			c-2.1,0.1-4.1,0.3-6.2,0.6c-2,0.3-4,0.7-5.9,1.4c-3.8,1.3-7.3,3.5-10.2,6.1c-2.9,2.7-5.2,5.9-6.8,9.2c-3.3,6.7-4.4,14.1-3.4,20.4
			c0.5,3.1,1.5,6,3,8.4c1.6,2.4,3.6,4.3,5.9,5.6l0.9,0.5l0.9,0.4l0.9,0.4c0.3,0.1,0.7,0.3,1.1,0.4l0.3,0.1c0,0-0.1,0,0,0l0.1,0
			l0.1,0l0.5,0.2c0.3,0.1,0.7,0.2,1,0.3c0.7,0.2,1.3,0.4,2,0.5c2.6,0.6,5.1,0.9,7.3,0.8c2.2-0.1,4.2-0.7,5.8-1.6
			c1.6-1,2.9-2.3,3.9-3.6c1.9-2.8,2.7-5.6,3.2-7.5c0.2-0.9,0.4-1.7,0.4-2.2c0.1-0.5,0.1-0.8,0.1-0.8L150.9,77.4z"/>
	</g>
	<g>
		<path fill="#3C2415" d="M64.9,64.9c0.4,1,0.4,2.2-0.1,3.3c-0.5,1.1-1.3,1.9-2.2,2.5c-0.9,0.6-1.9,1-2.9,1.3c-1,0.3-2,0.5-3.1,0.6
			c-1,0.1-2,0.2-3.1,0.3c-1,0-2,0-3,0c-2-0.1-4-0.2-6-0.4c-1-0.1-2-0.2-3-0.4c-1-0.1-2-0.3-3-0.5c-1-0.2-2-0.3-3-0.5
			c-1-0.2-2-0.4-2.9-0.6c-2-0.4-3.9-0.8-5.8-1.3c-1.9-0.5-3.9-1-5.8-1.5L2.6,63l19.2-0.7c9.2-0.3,18.5-0.4,27.7-0.7
			c9.2-0.1,18.5-0.2,27.7-0.2c4.6,0,9.2,0,13.9,0.1c4.6,0.1,9.2,0.2,13.9,0.4c9.2,0.3,18.5,0.7,27.7,1.1c9.2,0.4,18.5,0.6,27.7,0.7
			c9.2,0.1,18.5,0,27.7-0.1c9.2-0.1,18.5-0.4,27.7-0.7l27.7-1c9.2-0.3,18.5-0.5,27.7-0.6L299,61c9.2-0.1,18.5-0.2,27.7-0.3l13.9,0
			l13.9,0.1l13.9,0.2l13.9,0.3c9.2,0.2,18.5,0.5,27.7,0.7c9.2,0.3,18.5,0.6,27.7,1.1c9.2,0.4,18.5,0.9,27.7,1.5v0.8
			c-9.2,0.6-18.5,1.1-27.7,1.5c-9.2,0.4-18.5,0.7-27.7,1.1c-9.2,0.2-18.5,0.6-27.7,0.7L368.3,69l-13.9,0.2l-13.9,0.1l-13.9,0
			c-9.2,0-18.5-0.2-27.7-0.3l-27.7-0.4c-9.2-0.1-18.5-0.3-27.7-0.6l-27.7-1c-9.2-0.3-18.5-0.6-27.7-0.7c-9.2-0.1-18.5-0.2-27.7-0.1
			c-9.2,0.1-18.5,0.4-27.7,0.7c-9.2,0.4-18.5,0.8-27.7,1.1c-4.6,0.2-9.2,0.3-13.9,0.4c-4.6,0.1-9.2,0.1-13.9,0.1
			c-9.2,0-18.5-0.1-27.7-0.2c-9.2-0.2-18.5-0.3-27.7-0.7l0.8-5.4c1.9,0.6,3.7,1.2,5.6,1.8c1.9,0.6,3.7,1.2,5.6,1.7
			c0.9,0.3,1.9,0.5,2.8,0.8c0.9,0.3,1.9,0.5,2.8,0.7c1.9,0.5,3.8,0.9,5.7,1.3c1.9,0.4,3.8,0.7,5.7,1c0.9,0.1,1.9,0.2,2.9,0.3
			c1,0.1,1.9,0.1,2.8,0.1c0.9,0,1.9-0.1,2.8-0.2c0.9-0.1,1.8-0.4,2.6-0.7c0.8-0.4,1.5-0.9,1.9-1.6c0.4-0.7,0.6-1.6,0.4-2.5
			L64.9,64.9z"/>
	</g>
	<g>
		<path fill="#3C2415" d="M666.8,77.5c0,0,0,0.3,0.1,0.8c0.1,0.5,0.2,1.2,0.4,2.2c0.5,1.9,1.3,4.7,3.2,7.5c1,1.4,2.3,2.7,3.9,3.6
			c1.6,0.9,3.6,1.5,5.8,1.6c2.2,0.1,4.7-0.2,7.3-0.8c0.6-0.2,1.3-0.3,2-0.5c0.3-0.1,0.7-0.2,1-0.3l0.5-0.2l0.1,0l0.1,0
			c0.1,0-0.1,0,0,0l0.3-0.1c0.3-0.1,0.8-0.3,1.1-0.4l0.9-0.4l0.9-0.4l0.9-0.5c2.3-1.3,4.4-3.2,5.9-5.6c1.5-2.4,2.6-5.3,3-8.4
			c1-6.3-0.1-13.6-3.4-20.4c-1.7-3.4-4-6.5-6.8-9.2c-2.9-2.7-6.3-4.8-10.2-6.1c-1.9-0.7-3.9-1.1-5.9-1.4c-2.1-0.3-4.1-0.5-6.2-0.6
			c-1-0.1-2.1-0.1-3.1-0.1c-1,0-2.1,0-3.1,0c-2.1,0-4.2,0.2-6.2,0.4c-4.1,0.5-8.2,1.2-12.3,2.2c-4,1-8,2.1-11.8,3.4
			c-3.9,1.3-7.6,2.7-11.3,4.3c-3.6,1.6-7.2,3.3-10.6,5.2c-1.7,0.9-3.4,1.9-5,2.8c-1.6,1-3.3,1.9-4.9,2.9c-3.2,2-6.4,4-9.5,5.9
			c-1.5,1-3.2,1.9-4.7,2.8c-1.6,0.9-3.1,1.8-4.7,2.6c-3.1,1.6-6.1,3.2-8.9,4.6c-5.8,2.8-11.2,5.2-16.1,7.1c-2.4,1-4.7,1.9-6.8,2.6
			c-2.1,0.8-4.1,1.5-5.9,2c-3.6,1.2-6.4,2-8.4,2.5c-2,0.5-3,0.7-3,0.7l-0.3-0.8c0,0,0.9-0.5,2.7-1.4c1.8-0.9,4.3-2.3,7.6-4.1
			c1.6-0.9,3.4-1.9,5.4-2.9c2-1.1,4.1-2.3,6.3-3.5c4.5-2.6,9.5-5.4,14.9-8.7c2.7-1.6,5.5-3.3,8.4-5.1c2.9-1.8,5.8-3.7,8.9-5.6
			c3.1-2,6.1-4,9.5-6.1c1.7-1,3.4-2,5.2-3c1.8-0.9,3.6-1.9,5.4-2.8c7.4-3.6,15.3-6.6,23.7-8.8c8.4-2.2,17.2-3.1,25.8-2.9
			c4.4,0.1,8.7,0.4,12.9,0.9c2.1,0.3,4.3,0.6,6.4,1c2.1,0.4,4.3,0.9,6.3,1.6c8.2,2.8,15.3,8.4,20.1,15.3c4.8,6.9,7.5,15.4,6.5,23.7
			c-0.5,4.1-1.9,8.1-4.2,11.4c-2.3,3.4-5.4,6-8.7,7.6c-3.3,1.7-6.6,2.4-9.7,2.9c-3.1,0.5-6.2,0.5-9.1,0c-2.9-0.5-5.6-1.7-7.6-3.4
			c-2.1-1.6-3.4-3.6-4.3-5.5c-0.9-1.9-1.3-3.6-1.6-5.1c-0.2-1.5-0.3-2.8-0.3-3.8c0-2.1,0.2-3.2,0.2-3.2L666.8,77.5z"/>
	</g>
	<g>
		<path fill="#3C2415" d="M752.7,65.2c-0.2,0.8,0,1.8,0.4,2.5c0.4,0.7,1.1,1.2,1.9,1.6c0.8,0.3,1.7,0.6,2.6,0.7
			c0.9,0.1,1.8,0.2,2.8,0.2c0.9,0,1.9,0,2.8-0.1c0.9-0.1,1.9-0.2,2.9-0.3c1.9-0.3,3.8-0.6,5.7-1c1.9-0.4,3.8-0.8,5.7-1.3
			c0.9-0.2,1.9-0.5,2.8-0.7c0.9-0.3,1.9-0.5,2.8-0.8c1.9-0.6,3.7-1.1,5.6-1.7c1.9-0.6,3.7-1.2,5.6-1.8l0.8,5.4
			c-9.2,0.3-18.5,0.4-27.7,0.7c-9.2,0.1-18.5,0.2-27.7,0.2c-4.6,0-9.2,0-13.9-0.1c-4.6-0.1-9.2-0.2-13.9-0.4
			c-9.2-0.3-18.5-0.7-27.7-1.1c-9.2-0.4-18.5-0.6-27.7-0.7c-9.2-0.1-18.5,0-27.7,0.1c-9.2,0.1-18.5,0.4-27.7,0.7l-27.7,1
			c-9.2,0.3-18.5,0.5-27.7,0.6l-27.7,0.4c-9.2,0.1-18.5,0.2-27.7,0.3l-13.9,0l-13.9-0.1L448.6,69l-13.9-0.3
			c-9.2-0.2-18.5-0.5-27.7-0.7c-9.2-0.3-18.5-0.6-27.7-1.1c-9.2-0.4-18.5-0.9-27.7-1.5v-0.8c9.2-0.6,18.5-1.1,27.7-1.5
			c9.2-0.4,18.5-0.7,27.7-1.1c9.2-0.2,18.5-0.6,27.7-0.7l13.9-0.3l13.9-0.2l13.9-0.1l13.9,0c9.2,0,18.5,0.2,27.7,0.3l27.7,0.4
			c9.2,0.1,18.5,0.3,27.7,0.6l27.7,1c9.2,0.3,18.5,0.6,27.7,0.7c9.2,0.1,18.5,0.2,27.7,0.1c9.2-0.1,18.5-0.4,27.7-0.7
			c9.2-0.4,18.5-0.8,27.7-1.1c4.6-0.2,9.2-0.3,13.9-0.4c4.6-0.1,9.2-0.1,13.9-0.1c9.2,0,18.5,0.1,27.7,0.2
			c9.2,0.2,18.5,0.3,27.7,0.7l19.2,0.7l-18.4,4.7c-1.9,0.5-3.8,1-5.8,1.5c-1.9,0.5-3.9,0.9-5.8,1.3c-1,0.2-2,0.4-2.9,0.6
			c-1,0.2-2,0.4-3,0.5c-1,0.2-2,0.3-3,0.5c-1,0.1-2,0.3-3,0.4c-2,0.2-4,0.4-6,0.4c-1,0-2,0-3,0c-1,0-2-0.1-3.1-0.3
			c-1-0.1-2-0.3-3.1-0.6c-1-0.3-2-0.7-2.9-1.3c-0.9-0.6-1.8-1.4-2.2-2.5c-0.4-1.1-0.5-2.2-0.1-3.3L752.7,65.2z"/>
	</g>
	<g>
		<g>
			<path fill="#C2B59B" d="M403,22.2c-14.4-12.2-29.5-3.8-29.5-3.8c-21.2,15.5,0.7,34.1,6.9,38.1C399.7,68.9,404,85.7,404,85.7
				c-2.7-12.8,23.3-21.4,35.1-33.8s9.1-27.5,0-35.1c-7.2-6-27.8-5.1-35.1,6.2c-0.3,0.5-0.6,1-0.9,1.6c-1.4,2.9-2.2,5.5-2.6,7.9
				c0,0-1.6,9.2,6.7,20.5"/>
			<path fill="#3C2415" d="M402.8,22.5c-0.6-0.3-1.1-0.7-1.7-1c-0.6-0.3-1.1-0.6-1.7-0.9c-0.6-0.3-1.2-0.6-1.7-0.8
				c-0.6-0.3-1.2-0.4-1.8-0.7c-0.6-0.2-1.2-0.4-1.8-0.5c-0.6-0.2-1.2-0.3-1.8-0.4c-0.6-0.1-1.2-0.2-1.8-0.3
				c-0.6-0.1-1.2-0.1-1.8-0.1c-2.4-0.1-4.8,0.2-7.2,0.7c-1.2,0.3-2.3,0.6-3.4,1.1c-0.6,0.2-1.1,0.4-1.6,0.7
				c-0.3,0.1-0.5,0.3-0.8,0.4c-0.2,0.1-0.5,0.3-0.6,0.4l0.3-0.2c-1.3,1-2.4,2.1-3.5,3.3c-1,1.2-1.9,2.4-2.5,3.7
				c-1.3,2.5-1.6,5.2-1,8c0.6,2.8,2.1,5.6,3.9,8.2c0.9,1.3,1.9,2.6,3,3.9c1.1,1.3,2.2,2.5,3.5,3.6c0.6,0.6,1.2,1.1,1.9,1.7
				c0.3,0.3,0.6,0.5,0.9,0.8l1.1,0.8l1.1,0.8l1.1,0.9c0.7,0.6,1.4,1.2,2.1,1.8c1.4,1.3,2.7,2.6,3.9,3.9c1.3,1.3,2.5,2.7,3.6,4.2
				c2.3,2.9,4.4,5.8,6.2,9c0.9,1.6,1.8,3.2,2.6,4.8c0.8,1.7,1.5,3.3,2.1,5.2l-2.5,0.6c-0.5-1.9-0.4-3.9,0.3-5.7
				c0.6-1.8,1.6-3.4,2.7-4.9c2.2-2.9,4.9-5.2,7.5-7.4c2.7-2.2,5.4-4.2,8.1-6.2c2.7-2,5.4-4,8-6c2.6-2,5-4.1,7.1-6.3l0.8-0.9
				c0.3-0.3,0.5-0.6,0.7-0.9c0.4-0.5,0.9-1.2,1.3-1.8c0.8-1.2,1.5-2.5,2.1-3.8c1.1-2.6,1.7-5.4,1.7-8.1c0-2.7-0.7-5.4-1.8-7.9
				c-0.6-1.2-1.3-2.4-2.1-3.5c-0.4-0.5-0.9-1-1.3-1.5c-0.2-0.2-0.5-0.5-0.7-0.7l-0.4-0.3l0,0c-0.1-0.1,0.2,0.1,0.1,0.1l-0.1,0
				l-0.1-0.1l-0.2-0.2l-0.2-0.2l-0.1-0.1c-0.1,0-0.2-0.1-0.2-0.2c-0.3-0.1-0.5-0.3-0.8-0.4c-0.5-0.3-1.1-0.5-1.8-0.7
				c-1.3-0.4-2.7-0.7-4.1-0.9c-2.9-0.4-5.9-0.4-8.9,0.1c-2.9,0.5-5.8,1.3-8.4,2.7c-2.5,1.4-4.7,3.3-6.1,5.7c-0.8,1.4-1.4,2.7-2,4.2
				c-0.3,0.7-0.5,1.4-0.7,2.2l-0.1,0.6c0,0.2-0.1,0.3-0.1,0.5c-0.1,0.3-0.1,0.7-0.1,1.1c-0.2,3,0.2,6.3,1.2,9.4c0.9,3.1,2.3,6.1,4,9
				c0.1,0.2,0.1,0.4-0.1,0.6c-0.2,0.1-0.4,0.1-0.5-0.1c-2.3-2.5-4.2-5.4-5.7-8.6c-0.8-1.6-1.4-3.2-1.8-5c-0.5-1.7-0.8-3.5-0.9-5.3
				c0-0.5,0-0.9,0-1.4c0-0.2,0-0.6,0-0.8l0.1-0.7c0.1-0.9,0.2-1.8,0.4-2.7c0.4-1.8,1-3.6,1.7-5.2c0.8-1.8,1.8-3.5,3.1-5
				c1.3-1.5,2.8-2.8,4.3-3.9c3.2-2.2,6.7-3.6,10.3-4.5c3.6-0.9,7.4-1.2,11.2-0.9c1.9,0.2,3.8,0.5,5.8,1c1,0.3,1.9,0.6,2.9,1.1
				c0.5,0.2,1,0.5,1.5,0.7l0.8,0.5l0.4,0.3l0.3,0.2l0.3,0.2l0.1,0.1l0.1,0l0.2,0.2l0.6,0.5c0.4,0.3,0.7,0.7,1.1,1
				c0.7,0.7,1.4,1.5,2,2.2c1.2,1.6,2.3,3.3,3.2,5.1c1.7,3.6,2.6,7.7,2.4,11.7c-0.1,4-1.1,7.9-2.8,11.4c-0.9,1.7-1.9,3.4-3,4.9
				c-0.6,0.8-1.1,1.5-1.8,2.2c-0.3,0.4-0.7,0.8-0.9,1l-1,1c-2.7,2.6-5.5,4.7-8.4,6.6c-2.9,1.9-5.9,3.6-8.8,5.3
				c-2.9,1.7-5.8,3.3-8.6,5c-2.8,1.8-5.5,3.6-7.6,5.9c-2.2,2.2-3.5,5.1-3,7.9l0,0c0.1,0.7-0.3,1.4-1,1.5c-0.7,0.1-1.3-0.3-1.5-0.9
				c-0.4-1.6-1.1-3.2-1.8-4.8c-0.7-1.6-1.5-3.1-2.5-4.6c-1.8-3-4-5.7-6.4-8.2c-1.2-1.2-2.5-2.4-3.9-3.5c-1.3-1.1-2.7-2.1-4.2-3.1
				c-0.7-0.5-1.4-1-2.2-1.4l-1.1-0.7l-1.2-0.7l-1.2-0.7c-0.4-0.2-0.8-0.5-1.2-0.8c-0.8-0.5-1.6-1.1-2.4-1.6c-3-2.3-5.9-4.8-8.3-7.9
				c-1.2-1.5-2.3-3.2-3.2-5c-0.9-1.8-1.7-3.8-2.1-5.9c-0.4-2.1-0.5-4.4-0.2-6.5c0.4-2.2,1.1-4.3,2.2-6.2c1.1-1.9,2.4-3.5,3.8-4.9
				c1.4-1.4,3-2.6,4.6-3.7l0.2-0.1c0,0,0.1-0.1,0.1-0.1c0.5-0.2,0.8-0.4,1.1-0.5c0.4-0.1,0.7-0.3,1-0.4c0.7-0.2,1.4-0.5,2.1-0.6
				c1.4-0.4,2.8-0.6,4.2-0.8c0.7-0.1,1.4-0.1,2.1-0.2c0.7,0,1.4,0,2.2,0c0.7,0,1.4,0.1,2.1,0.2c0.7,0.1,1.4,0.2,2.1,0.3
				c2.8,0.5,5.5,1.6,7.9,3c0.6,0.4,1.2,0.7,1.7,1.1c0.6,0.4,1.1,0.8,1.6,1.2c0.5,0.4,1,0.9,1.5,1.4c0.5,0.5,0.9,0.9,1.4,1.4
				c0.2,0.2,0.1,0.4,0,0.6C403.1,22.6,402.9,22.6,402.8,22.5L402.8,22.5z"/>
		</g>
		<g>
			<path fill="#3C2415" d="M414,39.6c0,0-0.3,0.3-0.8,0.8c-0.3,0.2-0.6,0.5-1,0.8c-0.4,0.3-0.9,0.6-1.4,0.9
				c-0.3,0.1-0.6,0.3-0.9,0.5c-0.3,0.1-0.6,0.3-1,0.4c-0.7,0.3-1.4,0.5-2.1,0.7c-0.8,0.2-1.6,0.4-2.4,0.5c-0.8,0.1-1.7,0.2-2.5,0.2
				c-0.4,0-0.8,0-1.3,0c-0.4,0-0.8-0.1-1.3-0.1c-0.8-0.1-1.6-0.3-2.4-0.5c-0.8-0.2-1.5-0.5-2.2-0.7c-0.3-0.1-0.7-0.3-1-0.4
				c-0.3-0.2-0.6-0.3-0.9-0.5c-0.5-0.3-1-0.6-1.4-0.9c-0.4-0.3-0.7-0.6-1-0.9c-0.5-0.5-0.8-0.8-0.8-0.8s0.4,0.1,1.1,0.3
				c0.3,0.1,0.8,0.2,1.2,0.4c0.5,0.1,1,0.2,1.6,0.4c0.6,0.1,1.2,0.3,1.8,0.4c0.6,0.1,1.3,0.3,2,0.3c0.7,0.1,1.4,0.2,2.2,0.2
				c0.4,0,0.7,0,1.1,0.1c0.4,0,0.7,0,1.1,0c0.7,0,1.5-0.1,2.2-0.1c0.7,0,1.5-0.2,2.2-0.2c0.7-0.1,1.4-0.2,2-0.3
				c0.7-0.1,1.3-0.2,1.9-0.3c1.1-0.2,2.1-0.5,2.8-0.6C413.6,39.7,414,39.6,414,39.6z"/>
		</g>
	</g>
</g>
</svg>
