<svg xmlns="http://www.w3.org/2000/svg" width="35.2" height="32.7" viewBox="0 0 35.2 32.7"><g stroke="#FEEBEB" stroke-linecap="round" stroke-linejoin="round" stroke-miterlimit="10" fill="none"><path stroke-width=".85" d="M28.4 12.8l3.6 19h-27.7l3.6-19z"/><path stroke-width=".904" d="M10.5 12.7s-1.7-12 7.7-12l7.4 12"/><path stroke-width=".951" d="M7.7 12.8l-2.7-7 7.8 2.2 5.1-4.4 4.2 4.6 8.2-2.4-2.1 7"/><g stroke-width=".75"><path d="M17.6 19.5c-1.6-1.3-3.2-.4-3.2-.4-2.3 1.6.1 3.6.8 4 2.1 1.3 2.6 3.1 2.6 3.1-.3-1.3 2.5-2.3 3.8-3.6 1.3-1.3 1-2.9 0-3.7-.8-.6-3-.5-3.8.7l-.1.2c-.2.3-.2.6-.3.8 0 0-.2 1 .7 2.2M18.8 21.3s-1.3.8-2.7 0"/></g></g></svg>