<?xml version="1.0" encoding="utf-8"?>
<!-- Generator: Adobe Illustrator 19.1.0, SVG Export Plug-In . SVG Version: 6.00 Build 0)  -->
<svg version="1.1" id="Layer_1" xmlns="http://www.w3.org/2000/svg" xmlns:xlink="http://www.w3.org/1999/xlink" x="0px" y="0px"
	 width="35.2px" height="32.7px" viewBox="0 0 35.2 32.7" enable-background="new 0 0 35.2 32.7" xml:space="preserve">
<path fill="none" stroke="#FEEBEB" stroke-linecap="round" stroke-linejoin="round" stroke-miterlimit="10" d="M18,8.8
	c0,0,3.5-3.3,11.8-0.5c0,0,1.8,0.9,4-1v17.4c-3.3-1.4-12.7-3.3-16,0L18,8.8z"/>
<path fill="none" stroke="#FEEBEB" stroke-linecap="round" stroke-linejoin="round" stroke-miterlimit="10" d="M17.2,8.6
	c0,0-3.5-3.3-11.8-0.5c0,0-1.8,0.9-4-1v17.4c3.3-1.4,12.7-3.3,16,0L17.2,8.6z"/>
<path fill="none" stroke="#FEEBEB" stroke-width="0.9" stroke-linecap="round" stroke-linejoin="round" stroke-miterlimit="10" d="
	M17.4,25.1c0,0-6.2-2.1-14.5,0.3l-1.6,0.3v-1"/>
<path fill="none" stroke="#FEEBEB" stroke-width="0.8821" stroke-linecap="round" stroke-linejoin="round" stroke-miterlimit="10" d="
	M17.8,25.3c0,0,6.2-2,14.5,0.3l1.6,0.3v-0.9"/>
<g>
	
		<path fill="none" stroke="#FEEBEB" stroke-width="0.6298" stroke-linecap="round" stroke-linejoin="round" stroke-miterlimit="10" d="
		M8.9,13.2c-1.3-1.1-2.7-0.3-2.7-0.3c-1.9,1.4,0.1,3,0.6,3.4C8.6,17.3,9,18.8,9,18.8c-0.3-1.1,2.1-1.9,3.2-3c1.1-1.1,0.8-2.4,0-3.1
		C11.6,12.2,9.7,12.2,8.9,13.2c0.1,0.1,0,0.2,0,0.2c-0.1,0.3-0.2,0.5-0.2,0.7c0,0-0.1,0.8,0.6,1.8"/>
	
		<path fill="none" stroke="#FEEBEB" stroke-width="0.6298" stroke-linecap="round" stroke-linejoin="round" stroke-miterlimit="10" d="
		M9.9,14.7c0,0-1.1,0.7-2.2,0"/>
</g>
<g>
	
		<path fill="none" stroke="#FEEBEB" stroke-width="0.6298" stroke-linecap="round" stroke-linejoin="round" stroke-miterlimit="10" d="
		M25.8,13.2c-1.3-1.1-2.7-0.3-2.7-0.3c-1.9,1.4,0.1,3,0.6,3.4c1.8,1.1,2.2,2.6,2.2,2.6c-0.3-1.1,2.1-1.9,3.2-3
		c1.1-1.1,0.8-2.4,0-3.1C28.5,12.2,26.6,12.2,25.8,13.2c0.1,0.1,0,0.2,0,0.2c-0.1,0.3-0.2,0.5-0.2,0.7c0,0-0.1,0.8,0.6,1.8"/>
	
		<path fill="none" stroke="#FEEBEB" stroke-width="0.6298" stroke-linecap="round" stroke-linejoin="round" stroke-miterlimit="10" d="
		M26.8,14.7c0,0-1.1,0.7-2.2,0"/>
</g>
</svg>
