<?xml version="1.0" encoding="utf-8"?>
<!-- Generator: Adobe Illustrator 19.1.0, SVG Export Plug-In . SVG Version: 6.00 Build 0)  -->
<svg version="1.1" id="Layer_1" xmlns="http://www.w3.org/2000/svg" xmlns:xlink="http://www.w3.org/1999/xlink" x="0px" y="0px"
	 width="35.2px" height="32.7px" viewBox="0 0 35.2 32.7" enable-background="new 0 0 35.2 32.7" xml:space="preserve">
<g>
	
		<polygon fill="none" stroke="#FEEBEB" stroke-width="0.8504" stroke-linecap="round" stroke-linejoin="round" stroke-miterlimit="10" points="
		28.4,12.8 32,31.8 4.3,31.8 7.9,12.8 	"/>
	
		<path fill="none" stroke="#FEEBEB" stroke-width="0.9044" stroke-linecap="round" stroke-linejoin="round" stroke-miterlimit="10" d="
		M10.5,12.7c0,0-1.7-12,7.7-12s7.4,12,7.4,12"/>
	
		<polyline fill="none" stroke="#FEEBEB" stroke-width="0.9506" stroke-linecap="round" stroke-linejoin="round" stroke-miterlimit="10" points="
		7.7,12.8 5,5.8 12.8,8 17.9,3.6 22.1,8.2 30.3,5.8 28.2,12.8 	"/>
	<g>
		
			<path fill="none" stroke="#FEEBEB" stroke-width="0.75" stroke-linecap="round" stroke-linejoin="round" stroke-miterlimit="10" d="
			M17.6,19.5c-1.6-1.3-3.2-0.4-3.2-0.4c-2.3,1.6,0.1,3.6,0.8,4c2.1,1.3,2.6,3.1,2.6,3.1c-0.3-1.3,2.5-2.3,3.8-3.6
			c1.3-1.3,1-2.9,0-3.7c-0.8-0.6-3-0.5-3.8,0.7c0,0.1-0.1,0.1-0.1,0.2c-0.2,0.3-0.2,0.6-0.3,0.8c0,0-0.2,1,0.7,2.2"/>
		
			<path fill="none" stroke="#FEEBEB" stroke-width="0.75" stroke-linecap="round" stroke-linejoin="round" stroke-miterlimit="10" d="
			M18.8,21.3c0,0-1.3,0.8-2.7,0"/>
	</g>
</g>
</svg>
