<svg xmlns="http://www.w3.org/2000/svg" width="35.2" height="32.7" viewBox="0 0 35.2 32.7"><path stroke="#FEEBEB" stroke-linecap="round" stroke-linejoin="round" stroke-miterlimit="10" d="M18 8.8s3.5-3.3 11.8-.5c0 0 1.8.9 4-1v17.4c-3.3-1.4-12.7-3.3-16 0l.2-15.9zM17.2 8.6s-3.5-3.3-11.8-.5c0 0-1.8.9-4-1v17.4c3.3-1.4 12.7-3.3 16 0l-.2-15.9z" fill="none"/><path stroke="#FEEBEB" stroke-width=".9" stroke-linecap="round" stroke-linejoin="round" stroke-miterlimit="10" d="M17.4 25.1s-6.2-2.1-14.5.3l-1.6.3v-1" fill="none"/><path stroke="#FEEBEB" stroke-width=".882" stroke-linecap="round" stroke-linejoin="round" stroke-miterlimit="10" d="M17.8 25.3s6.2-2 14.5.3l1.6.3v-.9" fill="none"/><g stroke="#FEEBEB" stroke-width=".63" stroke-linecap="round" stroke-linejoin="round" stroke-miterlimit="10" fill="none"><path d="M8.9 13.2c-1.3-1.1-2.7-.3-2.7-.3-1.9 1.4.1 3 .6 3.4 1.8 1 2.2 2.5 2.2 2.5-.3-1.1 2.1-1.9 3.2-3s.8-2.4 0-3.1c-.6-.5-2.5-.5-3.3.5.1.1 0 .2 0 .2-.1.3-.2.5-.2.7 0 0-.1.8.6 1.8M9.9 14.7s-1.1.7-2.2 0"/></g><g stroke="#FEEBEB" stroke-width=".63" stroke-linecap="round" stroke-linejoin="round" stroke-miterlimit="10" fill="none"><path d="M25.8 13.2c-1.3-1.1-2.7-.3-2.7-.3-1.9 1.4.1 3 .6 3.4 1.8 1.1 2.2 2.6 2.2 2.6-.3-1.1 2.1-1.9 3.2-3s.8-2.4 0-3.1c-.6-.6-2.5-.6-3.3.4.1.1 0 .2 0 .2-.1.3-.2.5-.2.7 0 0-.1.8.6 1.8M26.8 14.7s-1.1.7-2.2 0"/></g></svg>