<svg xmlns="http://www.w3.org/2000/svg" width="35.2" height="32.7" viewBox="0 0 35.2 32.7"><g stroke="#FEEBEB" stroke-linecap="round" stroke-linejoin="round" stroke-miterlimit="10" fill="none"><path stroke-width=".684" d="M17.1 24.2h2.6v2.7h-2.6z"/><path stroke-width=".924" d="M20.9 26.9h-13.8l-3.8 5.1h30.6l-3.7-5.1z"/><g stroke-width=".668"><path d="M18.3 10.3c-1.7-1.5-3.5-.5-3.5-.5-2.5 1.8.1 4.1.8 4.5 2.3 1.5 2.8 3.5 2.8 3.5-.3-1.5 2.8-2.6 4.2-4 1.4-1.5 1.1-3.3 0-4.2-.9-.7-3.3-.6-4.2.7l-.1.2c-.2.3-.3.7-.3.9 0 0-.2 1.1.8 2.4M19.6 12.4s-1.4.9-2.9 0"/></g><path stroke-width=".954" d="M29.3 24.2h-22.4c-2.7 0-4.9-2.2-4.9-4.9v-13.4c0-2.7 2.2-4.9 4.9-4.9h22.3c2.7 0 4.9 2.2 4.9 4.9v13.5c.1 2.6-2.1 4.8-4.8 4.8zM26.6 21.3h-17.1c-2.2 0-4-1.8-4-4v-9.4c0-2.2 1.8-4 4-4h17.1c2.2 0 4 1.8 4 4v9.4c0 2.2-1.8 4-4 4z"/></g></svg>