<?xml version="1.0" encoding="utf-8"?>
<!-- Generator: Adobe Illustrator 19.1.0, SVG Export Plug-In . SVG Version: 6.00 Build 0)  -->
<svg version="1.1" id="Layer_1" xmlns="http://www.w3.org/2000/svg" xmlns:xlink="http://www.w3.org/1999/xlink" x="0px" y="0px"
	 width="35.2px" height="32.7px" viewBox="0 0 35.2 32.7" enable-background="new 0 0 35.2 32.7" xml:space="preserve">
<g>
	
		<rect x="17.1" y="24.2" fill="none" stroke="#FEEBEB" stroke-width="0.6841" stroke-linecap="round" stroke-linejoin="round" stroke-miterlimit="10" width="2.6" height="2.7"/>
	
		<polygon fill="none" stroke="#FEEBEB" stroke-width="0.9241" stroke-linecap="round" stroke-linejoin="round" stroke-miterlimit="10" points="
		20.9,26.9 7.1,26.9 3.3,32 33.9,32 30.2,26.9 	"/>
	<g>
		
			<path fill="none" stroke="#FEEBEB" stroke-width="0.6679" stroke-linecap="round" stroke-linejoin="round" stroke-miterlimit="10" d="
			M18.3,10.3c-1.7-1.5-3.5-0.5-3.5-0.5c-2.5,1.8,0.1,4.1,0.8,4.5c2.3,1.5,2.8,3.5,2.8,3.5c-0.3-1.5,2.8-2.6,4.2-4
			c1.4-1.5,1.1-3.3,0-4.2c-0.9-0.7-3.3-0.6-4.2,0.7c0,0.1-0.1,0.1-0.1,0.2c-0.2,0.3-0.3,0.7-0.3,0.9c0,0-0.2,1.1,0.8,2.4"/>
		
			<path fill="none" stroke="#FEEBEB" stroke-width="0.6679" stroke-linecap="round" stroke-linejoin="round" stroke-miterlimit="10" d="
			M19.6,12.4c0,0-1.4,0.9-2.9,0"/>
	</g>
	
		<path fill="none" stroke="#FEEBEB" stroke-width="0.9544" stroke-linecap="round" stroke-linejoin="round" stroke-miterlimit="10" d="
		M29.3,24.2H6.9C4.2,24.2,2,22,2,19.3V5.9c0-2.7,2.2-4.9,4.9-4.9h22.3c2.7,0,4.9,2.2,4.9,4.9v13.5C34.2,22,32,24.2,29.3,24.2z"/>
	
		<path fill="none" stroke="#FEEBEB" stroke-width="0.9544" stroke-linecap="round" stroke-linejoin="round" stroke-miterlimit="10" d="
		M26.6,21.3H9.5c-2.2,0-4-1.8-4-4V7.9c0-2.2,1.8-4,4-4h17.1c2.2,0,4,1.8,4,4v9.4C30.6,19.5,28.8,21.3,26.6,21.3z"/>
</g>
</svg>
