<?xml version="1.0" encoding="utf-8"?>
<!-- Generator: Adobe Illustrator 19.1.0, SVG Export Plug-In . SVG Version: 6.00 Build 0)  -->
<svg version="1.1" id="Layer_1" xmlns="http://www.w3.org/2000/svg" xmlns:xlink="http://www.w3.org/1999/xlink" x="0px" y="0px"
	 width="28.8px" height="20.6px" viewBox="0 0 28.8 20.6" enable-background="new 0 0 28.8 20.6" xml:space="preserve">
<g>
	<path fill="#FEEBEB" stroke="#FEEBEB" stroke-width="1.1024" stroke-miterlimit="10" d="M26.3,19.7h-24c-0.8,0-1.4-0.6-1.4-1.4
		v-0.6c0-0.8,0.6-1.4,1.4-1.4h24c0.8,0,1.4,0.6,1.4,1.4v0.6C27.8,19.1,27.1,19.7,26.3,19.7z"/>
	<path fill="#FEEBEB" stroke="#FEEBEB" stroke-width="1.1024" stroke-miterlimit="10" d="M26.3,12.1h-24c-0.8,0-1.4-0.6-1.4-1.4V10
		c0-0.8,0.6-1.4,1.4-1.4h24c0.8,0,1.4,0.6,1.4,1.4v0.6C27.8,11.4,27.1,12.1,26.3,12.1z"/>
	<path fill="#FEEBEB" stroke="#FEEBEB" stroke-width="1.1024" stroke-miterlimit="10" d="M26.3,4.3h-24c-0.8,0-1.4-0.6-1.4-1.4V2.3
		c0-0.8,0.6-1.4,1.4-1.4h24c0.8,0,1.4,0.6,1.4,1.4v0.6C27.8,3.7,27.1,4.3,26.3,4.3z"/>
</g>
</svg>
