<svg xmlns="http://www.w3.org/2000/svg" width="28.8" height="20.6" viewBox="0 0 28.8 20.6"><g fill="#FEEBEB" stroke="#FEEBEB" stroke-width="1.102" stroke-miterlimit="10"><path d="M26.3 19.7h-24c-.8 0-1.4-.6-1.4-1.4v-.6c0-.8.6-1.4 1.4-1.4h24c.8 0 1.4.6 1.4 1.4v.6c.1.8-.6 1.4-1.4 1.4zM26.3 12.1h-24c-.8 0-1.4-.6-1.4-1.4v-.7c0-.8.6-1.4 1.4-1.4h24c.8 0 1.4.6 1.4 1.4v.6c.1.8-.6 1.5-1.4 1.5zM26.3 4.3h-24c-.8 0-1.4-.6-1.4-1.4v-.6c0-.8.6-1.4 1.4-1.4h24c.8 0 1.4.6 1.4 1.4v.6c.1.8-.6 1.4-1.4 1.4z"/></g></svg>