<?xml version="1.0" encoding="utf-8"?>
<!-- Generator: Adobe Illustrator 19.1.0, SVG Export Plug-In . SVG Version: 6.00 Build 0)  -->
<svg version="1.1" id="Layer_1" xmlns="http://www.w3.org/2000/svg" xmlns:xlink="http://www.w3.org/1999/xlink" x="0px" y="0px"
	 width="204.7px" height="65.8px" viewBox="0 0 204.7 65.8" enable-background="new 0 0 204.7 65.8" xml:space="preserve">
<g>
	<g>
		<path fill="#FEEBEB" d="M105.3,26.5c-0.4-0.3-0.8-0.5-1.3-0.7c-0.4-0.2-0.9-0.4-1.3-0.5c-0.9-0.3-1.8-0.5-2.7-0.5
			c-0.9,0-1.8,0.1-2.7,0.3c-0.4,0.1-0.9,0.2-1.3,0.4c-0.2,0.1-0.4,0.2-0.6,0.3c-0.2,0.1-0.4,0.2-0.5,0.3l0.1-0.1
			c-0.5,0.4-0.9,0.8-1.3,1.2c-0.4,0.4-0.7,0.9-0.9,1.4c-0.5,0.9-0.6,2-0.4,3c0.1,0.5,0.3,1,0.6,1.6c0.2,0.5,0.6,1,0.9,1.5
			c0.7,1,1.5,1.9,2.4,2.8l0.7,0.6l0.4,0.3l0.4,0.3c0.5,0.4,1,0.8,1.6,1.3c0.5,0.5,1,1,1.5,1.4c0.5,0.5,0.9,1,1.3,1.5
			c0.4,0.5,0.8,1.1,1.2,1.6c0.4,0.6,0.8,1.1,1.1,1.7c0.3,0.6,0.7,1.2,1,1.8c0.3,0.6,0.6,1.2,0.8,1.9l-0.9,0.2
			c-0.2-0.7-0.1-1.4,0.1-2.1c0.2-0.7,0.6-1.3,1-1.8c0.8-1.1,1.8-1.9,2.8-2.7c2-1.6,4.1-3,6-4.5c1-0.7,1.9-1.5,2.6-2.3
			c0.8-0.9,1.4-1.7,1.8-2.7c0.9-2,0.8-4.2,0-6c-0.4-0.9-1.1-1.8-1.8-2.4c-0.6-0.5-1.7-0.8-2.7-0.9c-2.2-0.3-4.6,0.1-6.5,1.1
			c-0.9,0.5-1.8,1.2-2.3,2.1c-0.3,0.5-0.5,1-0.7,1.6c-0.1,0.3-0.2,0.5-0.3,0.8c0,0.1-0.1,0.3-0.1,0.4c0,0.1,0,0.3,0,0.4
			c-0.1,1.1,0.1,2.3,0.4,3.5c0.4,1.2,0.9,2.3,1.5,3.3l0.1,0.1l-0.2,0.2l-0.1-0.1c-0.8-0.9-1.6-2-2.1-3.2c-0.5-1.2-0.9-2.5-1-3.8
			c0-1.4,0.3-2.8,0.8-4c0.6-1.3,1.6-2.5,2.8-3.3c1.2-0.8,2.5-1.3,3.8-1.7c1.4-0.3,2.7-0.4,4.1-0.3c1.4,0.1,2.8,0.4,4.3,1.4
			c1.2,0.9,2.1,2.1,2.8,3.5c0.6,1.3,1,2.8,0.9,4.3c0,1.5-0.4,2.9-1,4.2c-0.6,1.3-1.6,2.5-2.5,3.4c-1,1-2.1,1.7-3.1,2.5
			c-2.2,1.4-4.4,2.5-6.5,3.8c-1,0.7-2,1.4-2.8,2.2c-0.8,0.8-1.3,1.9-1.1,3c0,0.3-0.1,0.5-0.4,0.5c-0.2,0-0.5-0.1-0.5-0.3
			c-0.2-0.6-0.4-1.2-0.7-1.8c-0.3-0.6-0.6-1.2-0.9-1.7c-0.3-0.5-0.7-1.1-1.1-1.6c-0.4-0.5-0.8-1-1.3-1.5c-0.4-0.5-0.9-0.9-1.4-1.3
			c-0.5-0.4-1-0.8-1.5-1.1c-0.5-0.4-1.1-0.7-1.7-1l-0.4-0.2l-0.5-0.3c-0.3-0.2-0.6-0.4-0.9-0.6c-1.1-0.8-2.2-1.8-3.1-2.9
			c-0.5-0.6-0.8-1.2-1.2-1.9c-0.3-0.7-0.6-1.4-0.8-2.2c-0.3-1.6-0.1-3.3,0.7-4.7c0.4-0.7,0.9-1.3,1.4-1.8c0.5-0.5,1.1-1,1.7-1.4l0,0
			c0,0,0.1,0,0.1,0c0.3-0.2,0.5-0.2,0.8-0.3c0.3-0.1,0.5-0.2,0.8-0.2c0.5-0.1,1-0.2,1.6-0.3c1.1-0.1,2.1-0.1,3.2,0.1
			c1,0.2,2,0.6,2.9,1.1c0.4,0.3,0.9,0.6,1.3,0.9c0.4,0.3,0.8,0.7,1.1,1l0.1,0.1l-0.2,0.2L105.3,26.5z"/>
	</g>
	<g>
		<path fill="#FEEBEB" d="M109.4,32.9c0,0-0.4,0.5-1.2,0.9c-0.4,0.2-0.9,0.4-1.5,0.6c-0.3,0.1-0.6,0.2-0.9,0.2
			c-0.3,0-0.6,0.1-0.9,0.1c-0.3,0-0.6,0-0.9-0.1c-0.3,0-0.6-0.1-0.9-0.2c-0.3-0.1-0.6-0.2-0.8-0.3c-0.3-0.1-0.5-0.2-0.7-0.3
			c-0.4-0.2-0.7-0.5-0.9-0.7c-0.2-0.2-0.3-0.3-0.3-0.3s0.2,0,0.4,0.1c0.3,0.1,0.6,0.2,1,0.3c0.2,0.1,0.4,0.1,0.7,0.1
			c0.2,0,0.5,0.1,0.8,0.1c0.5,0.1,1.1,0.1,1.6,0.1c0.6,0,1.1-0.1,1.6-0.1c0.3-0.1,0.5-0.1,0.8-0.1c0.2,0,0.5-0.1,0.7-0.1
			C108.8,33,109.4,32.9,109.4,32.9z"/>
	</g>
</g>
<g>
	<path fill="#FEEBEB" d="M135.9,32.9c0,0,0,0.7-0.1,2.1c0,0.3,0,0.7-0.1,1.1c-0.1,0.4-0.1,0.9-0.2,1.4c-0.1,0.5-0.1,1-0.2,1.6
		c-0.1,0.6-0.3,1.1-0.4,1.8c-0.6,2.5-1.6,5.4-3.5,8.5c-1.8,3.1-4.4,6.3-8,9.2c-1.8,1.4-3.8,2.7-6.1,3.8c-0.6,0.3-1.1,0.6-1.7,0.8
		c-0.6,0.2-1.2,0.4-1.8,0.7c-1.2,0.5-2.5,0.7-3.9,1.1c-0.7,0.2-1.3,0.2-2,0.3l-1,0.1l-0.5,0.1c0.1,0-0.2,0-0.2,0l-0.1,0l-0.1,0
		l-0.2,0c-1.3,0-2.4,0.2-4.1,0.1c-0.8-0.1-1.6-0.1-2.3-0.2c-0.7-0.1-1.5-0.2-2.2-0.4c-0.8-0.1-1.5-0.3-2.2-0.5
		c-0.7-0.2-1.5-0.4-2.2-0.7c-3-1-5.8-2.6-8.5-4.4c-1.3-1-2.6-2-3.7-3.2c-1.2-1.1-2.2-2.5-3.3-3.8c-2-2.7-3.5-5.8-4.7-9.1
		c-0.2-0.8-0.5-1.7-0.7-2.5c-0.3-0.8-0.3-1.7-0.5-2.6c-0.1-0.9-0.3-1.7-0.3-2.6l-0.1-1.3l0-0.7l0-0.3l0-0.2l0-0.1c0-0.2,0,0.3,0-0.4
		l0.1-2.1l0-0.5c0-0.2,0-0.4,0.1-0.6l0.2-1.4l0.2-1.4l0.1-0.7l0.2-0.6l0.7-2.5c1.1-3.3,2.7-6.4,4.7-9.1c0.5-0.7,1-1.3,1.6-2
		c0.5-0.7,1.1-1.3,1.7-1.8c1.2-1.2,2.4-2.3,3.7-3.2C86.9,4.6,89.7,3,92.7,2c2.9-1,5.9-1.6,8.9-1.7c1.5-0.1,2.9,0,4.3,0l0.7,0
		l0.5,0.1l0.9,0.1c0.6,0.1,1.2,0.2,1.9,0.3c1.4,0.4,2.8,0.6,4,1.1c0.6,0.2,1.2,0.4,1.8,0.7c0.6,0.3,1.2,0.5,1.7,0.8
		c2.3,1,4.3,2.4,6.1,3.8c3.6,2.9,6.1,6.1,8,9.2c1.8,3.1,2.9,6.1,3.5,8.5c0.1,0.6,0.3,1.2,0.4,1.8c0.1,0.6,0.2,1.1,0.2,1.6
		c0.1,0.5,0.1,0.9,0.2,1.4c0.1,0.4,0,0.8,0.1,1.1C135.9,32.1,135.9,32.9,135.9,32.9L135.9,32.9z M135.2,32.9c0,0,0-0.7-0.1-2
		c0-0.3,0-0.7-0.1-1.1c-0.1-0.4-0.1-0.8-0.2-1.3c-0.1-0.5-0.1-1-0.3-1.5c-0.1-0.5-0.3-1.1-0.4-1.7c-0.7-2.4-1.7-5.2-3.7-8.1
		c-1.9-2.9-4.6-5.8-8.1-8.1c-3.5-2.3-7.9-4-12.7-4.6c-0.6-0.1-1.2-0.1-1.8-0.1c-0.6,0-1.3-0.1-1.9,0c-1.2,0.1-2.5,0.1-3.8,0.3
		c-2.5,0.3-5,1.1-7.4,2.2c-2.4,1.1-4.7,2.6-6.8,4.3c-2.1,1.8-3.9,3.8-5.4,6.1c-1.5,2.3-2.7,4.9-3.5,7.5c-0.8,2.7-1.1,5.4-1.2,8.3
		c0.1,2.7,0.4,5.6,1.2,8.2c0.8,2.7,2,5.2,3.5,7.5c1.6,2.3,3.4,4.4,5.4,6.1c2.1,1.7,4.4,3.2,6.8,4.3c2.4,1,4.9,1.9,7.4,2.2
		c1.2,0.3,2.5,0.3,3.8,0.3c0.6,0.1,1.2,0,1.8,0c0.6,0,1.2,0,1.8-0.1c4.8-0.6,9.2-2.3,12.7-4.6c3.5-2.4,6.2-5.3,8.1-8.1
		c1.9-2.9,3-5.7,3.7-8.1c0.2-0.6,0.3-1.2,0.4-1.7c0.1-0.5,0.2-1,0.3-1.5c0.1-0.5,0.1-0.9,0.2-1.3c0.1-0.4,0.1-0.8,0.1-1.1
		C135.2,33.6,135.2,32.8,135.2,32.9L135.2,32.9z"/>
</g>
<rect x="-0.6" y="21.8" fill="none" width="65.7" height="24.5"/>
<text transform="matrix(1 0 0 1 -0.585 43.3113)" fill="#FEEBEB" font-family="'PlayfairDisplay-BlackItalic'" font-size="27px">ONE</text>
<rect x="142.6" y="21.8" fill="none" width="65.7" height="24.5"/>
<text transform="matrix(1 0 0 1 142.5687 43.3113)" fill="#FEEBEB" font-family="'PlayfairDisplay-BlackItalic'" font-size="27px">ONE</text>
</svg>
