<svg xmlns="http://www.w3.org/2000/svg" width="204.7" height="65.8" viewBox="0 0 204.7 65.8"><path fill="#FEEBEB" d="M105.3 26.5c-.4-.3-.8-.5-1.3-.7-.4-.2-.9-.4-1.3-.5-.9-.3-1.8-.5-2.7-.5-.9 0-1.8.1-2.7.3-.4.1-.9.2-1.3.4l-.6.3c-.2.1-.4.2-.5.3l.1-.1c-.5.4-.9.8-1.3 1.2-.4.4-.7.9-.9 1.4-.5.9-.6 2-.4 3 .1.5.3 1 .6 1.6.2.5.6 1 .9 1.5.7 1 1.5 1.9 2.4 2.8l.7.6.4.3.4.3c.5.4 1 .8 1.6 1.3.5.5 1 1 1.5 1.4.5.5.9 1 1.3 1.5l1.2 1.6c.4.6.8 1.1 1.1 1.7l1 1.8c.3.6.6 1.2.8 1.9l-.9.2c-.2-.7-.1-1.4.1-2.1.2-.7.6-1.3 1-1.8.8-1.1 1.8-1.9 2.8-2.7 2-1.6 4.1-3 6-4.5 1-.7 1.9-1.5 2.6-2.3.8-.9 1.4-1.7 1.8-2.7.9-2 .8-4.2 0-6-.4-.9-1.1-1.8-1.8-2.4-.6-.5-1.7-.8-2.7-.9-2.2-.3-4.6.1-6.5 1.1-.9.5-1.8 1.2-2.3 2.1-.3.5-.5 1-.7 1.6l-.3.8-.1.4v.4c-.1 1.1.1 2.3.4 3.5.4 1.2.9 2.3 1.5 3.3l.1.1-.2.2-.1-.1c-.8-.9-1.6-2-2.1-3.2-.5-1.2-.9-2.5-1-3.8 0-1.4.3-2.8.8-4 .6-1.3 1.6-2.5 2.8-3.3 1.2-.8 2.5-1.3 3.8-1.7 1.4-.3 2.7-.4 4.1-.3 1.4.1 2.8.4 4.3 1.4 1.2.9 2.1 2.1 2.8 3.5.6 1.3 1 2.8.9 4.3 0 1.5-.4 2.9-1 4.2-.6 1.3-1.6 2.5-2.5 3.4-1 1-2.1 1.7-3.1 2.5-2.2 1.4-4.4 2.5-6.5 3.8-1 .7-2 1.4-2.8 2.2-.8.8-1.3 1.9-1.1 3 0 .3-.1.5-.4.5-.2 0-.5-.1-.5-.3-.2-.6-.4-1.2-.7-1.8-.3-.6-.6-1.2-.9-1.7-.3-.5-.7-1.1-1.1-1.6-.4-.5-.8-1-1.3-1.5-.4-.5-.9-.9-1.4-1.3-.5-.4-1-.8-1.5-1.1-.5-.4-1.1-.7-1.7-1l-.4-.2-.5-.3-.9-.6c-1.1-.8-2.2-1.8-3.1-2.9-.5-.6-.8-1.2-1.2-1.9-.3-.7-.6-1.4-.8-2.2-.3-1.6-.1-3.3.7-4.7.4-.7.9-1.3 1.4-1.8.5-.5 1.1-1 1.7-1.4h.1c.3-.2.5-.2.8-.3.3-.1.5-.2.8-.2.5-.1 1-.2 1.6-.3 1.1-.1 2.1-.1 3.2.1 1 .2 2 .6 2.9 1.1l1.3.9c.4.3.8.7 1.1 1l.1.1-.2.2-.2-.4zM109.4 32.9s-.4.5-1.2.9c-.4.2-.9.4-1.5.6-.3.1-.6.2-.9.2l-.9.1c-.3 0-.6 0-.9-.1-.3 0-.6-.1-.9-.2-.3-.1-.6-.2-.8-.3-.3-.1-.5-.2-.7-.3-.4-.2-.7-.5-.9-.7l-.3-.3s.2 0 .4.1c.3.1.6.2 1 .3.2.1.4.1.7.1.2 0 .5.1.8.1.5.1 1.1.1 1.6.1.6 0 1.1-.1 1.6-.1.3-.1.5-.1.8-.1l.7-.1c.8-.2 1.4-.3 1.4-.3zM135.9 32.9s0 .7-.1 2.1c0 .3 0 .7-.1 1.1-.1.4-.1.9-.2 1.4-.1.5-.1 1-.2 1.6-.1.6-.3 1.1-.4 1.8-.6 2.5-1.6 5.4-3.5 8.5-1.8 3.1-4.4 6.3-8 9.2-1.8 1.4-3.8 2.7-6.1 3.8-.6.3-1.1.6-1.7.8-.6.2-1.2.4-1.8.7-1.2.5-2.5.7-3.9 1.1-.7.2-1.3.2-2 .3l-1 .1-.5.1h-.6000000000000001c-1.3 0-2.4.2-4.1.1-.8-.1-1.6-.1-2.3-.2-.7-.1-1.5-.2-2.2-.4-.8-.1-1.5-.3-2.2-.5-.7-.2-1.5-.4-2.2-.7-3-1-5.8-2.6-8.5-4.4-1.3-1-2.6-2-3.7-3.2-1.2-1.1-2.2-2.5-3.3-3.8-2-2.7-3.5-5.8-4.7-9.1l-.7-2.5c-.3-.8-.3-1.7-.5-2.6-.1-.9-.3-1.7-.3-2.6l-.1-1.3v-1.7000000000000002l.1-2.1v-.5c0-.2 0-.4.1-.6l.2-1.4.2-1.4.1-.7.2-.6.7-2.5c1.1-3.3 2.7-6.4 4.7-9.1.5-.7 1-1.3 1.6-2 .5-.7 1.1-1.3 1.7-1.8 1.2-1.2 2.4-2.3 3.7-3.2 2.6-2.1 5.4-3.7 8.4-4.7 2.9-1 5.9-1.6 8.9-1.7 1.5-.1 2.9 0 4.3 0h.7l.5.1.9.1c.6.1 1.2.2 1.9.3 1.4.4 2.8.6 4 1.1.6.2 1.2.4 1.8.7.6.3 1.2.5 1.7.8 2.3 1 4.3 2.4 6.1 3.8 3.6 2.9 6.1 6.1 8 9.2 1.8 3.1 2.9 6.1 3.5 8.5l.4 1.8c.1.6.2 1.1.2 1.6l.2 1.4.1 1.1v2.1zm-.7 0s0-.7-.1-2c0-.3 0-.7-.1-1.1-.1-.4-.1-.8-.2-1.3s-.1-1-.3-1.5c-.1-.5-.3-1.1-.4-1.7-.7-2.4-1.7-5.2-3.7-8.1-1.9-2.9-4.6-5.8-8.1-8.1s-7.9-4-12.7-4.6c-.6-.1-1.2-.1-1.8-.1-.6 0-1.3-.1-1.9 0-1.2.1-2.5.1-3.8.3-2.5.3-5 1.1-7.4 2.2-2.4 1.1-4.7 2.6-6.8 4.3-2.1 1.8-3.9 3.8-5.4 6.1-1.5 2.3-2.7 4.9-3.5 7.5-.8 2.7-1.1 5.4-1.2 8.3.1 2.7.4 5.6 1.2 8.2.8 2.7 2 5.2 3.5 7.5 1.6 2.3 3.4 4.4 5.4 6.1 2.1 1.7 4.4 3.2 6.8 4.3 2.4 1 4.9 1.9 7.4 2.2 1.2.3 2.5.3 3.8.3.6.1 1.2 0 1.8 0 .6 0 1.2 0 1.8-.1 4.8-.6 9.2-2.3 12.7-4.6 3.5-2.4 6.2-5.3 8.1-8.1 1.9-2.9 3-5.7 3.7-8.1.2-.6.3-1.2.4-1.7l.3-1.5c.1-.5.1-.9.2-1.3s.1-.8.1-1.1c.2-1.6.2-2.4.2-2.3z"/><path fill="none" d="M-.6 21.8h65.7v24.5h-65.7z"/><text transform="translate(-.585 43.311)" fill="#FEEBEB" font-family="'PlayfairDisplay-BlackItalic'" font-size="27">ONE</text><path fill="none" d="M142.6 21.8h65.7v24.5h-65.7z"/><text transform="translate(142.569 43.311)" fill="#FEEBEB" font-family="'PlayfairDisplay-BlackItalic'" font-size="27">ONE</text></svg>